<svg id="Calque_1" data-name="Calque 1" xmlns="http://www.w3.org/2000/svg" viewBox="0 0 62.32 20.25"><defs><style>.cls-1{fill:#db4338;}</style></defs><path class="cls-1" d="M17.26,9.13v.61a4.87,4.87,0,0,1-1,.72,2.18,2.18,0,0,1-1,.15c-.79.93-1.48,1.4-2.08,1.4a1.48,1.48,0,0,1-.93-.34,2.21,2.21,0,0,1-.66-.92,3.16,3.16,0,0,1-.25-1.29,2.68,2.68,0,0,1,.38-1.29,5.89,5.89,0,0,1,1-1.32,5.51,5.51,0,0,1,1.31-1,2.8,2.8,0,0,1,1.3-.38,1.53,1.53,0,0,1,.67.13.41.41,0,0,1,.24.37.67.67,0,0,1-.2.42.8.8,0,0,1,.47.24,1.09,1.09,0,0,1,.12.61,3.73,3.73,0,0,1-.2,1.1,5.35,5.35,0,0,1-.56,1.24l.17.17h.13a.68.68,0,0,0,.31-.08,2,2,0,0,0,.26-.16ZM15.39,6.74c-.5.31-.93.58-1.29.82a6.49,6.49,0,0,0-.9.75,1.89,1.89,0,0,0-.5.76c-.15.67-.23,1-.23,1.09,0,.4.28.6.83.6a2.84,2.84,0,0,0,1.31-.67,2.42,2.42,0,0,1-.15-.82,3.24,3.24,0,0,1,.23-1.16A9.93,9.93,0,0,1,15.39,6.74Z"/><path class="cls-1" d="M23.36,7.51c-1.07,1.18-1.6,2-1.6,2.47,0,.26.11.39.32.39a1.36,1.36,0,0,0,.68-.27c.29-.19.73-.52,1.33-1v.63c-.86.84-1.52,1.46-2,1.83a2,2,0,0,1-1.13.56c-.49,0-.74-.32-.74-1a1.88,1.88,0,0,1,.09-.57,3.17,3.17,0,0,1,.25-.58c.1-.21.27-.5.48-.88l.76-1.28a5.69,5.69,0,0,0-1.3,1,10,10,0,0,0-.86.93c-.24.3-.49.62-.76,1a8.16,8.16,0,0,1-.59.73.56.56,0,0,1-.38.19c-.19,0-.37-.21-.53-.61a3.67,3.67,0,0,1-.25-1.42,2.06,2.06,0,0,1,.12-.78,4.84,4.84,0,0,1,.45-.8,8.7,8.7,0,0,1,1.07-1.41,1.31,1.31,0,0,1,.88-.45,1,1,0,0,1,.46.1.33.33,0,0,1,.18.31.45.45,0,0,1,0,.19.83.83,0,0,1-.13.18c0,.06-.14.16-.28.32-1,1.06-1.44,1.75-1.44,2.06s.06.26.18.26.21-.11.42-.34l.81-.92A16.11,16.11,0,0,1,21,7.21,12.83,12.83,0,0,1,22.52,6a1.49,1.49,0,0,1,.8-.34c.1,0,.19.13.29.4a2.51,2.51,0,0,1,.14.81C23.75,7,23.62,7.23,23.36,7.51Z"/><path class="cls-1" d="M25.09,7.52a11.22,11.22,0,0,1,2.68-1.86,5.24,5.24,0,0,1,2-.6.52.52,0,0,1,.35.15,1.37,1.37,0,0,1,.26.37.88.88,0,0,1,.09.31.26.26,0,0,1-.12.24,4,4,0,0,1-.45.19c0,.09.1.22.16.37s.12.27.16.37a.79.79,0,0,1,.05.25,1.88,1.88,0,0,1-.44.81c-.29.39-.5.69-.61.87a1.27,1.27,0,0,0-.18.69c0,.45.2.67.62.67a3.9,3.9,0,0,0,2-1.18v.55c-1.53,1.7-2.62,2.55-3.28,2.55a.57.57,0,0,1-.51-.23,1.29,1.29,0,0,1-.15-.69,6.63,6.63,0,0,1,.52-2.08c-.88,1-1.54,1.68-2,2.1A1.79,1.79,0,0,1,25.2,12c-.13,0-.3-.12-.5-.35a3.38,3.38,0,0,1-.53-.89,3,3,0,0,1-.23-1.14A2.84,2.84,0,0,1,24,8.9a1.81,1.81,0,0,1,.32-.59A9.43,9.43,0,0,1,25.09,7.52Zm4.35-1a19.57,19.57,0,0,0-3.36,1.83,2,2,0,0,0-1,1.55,1.14,1.14,0,0,0,.1.48.31.31,0,0,0,.28.18,1.07,1.07,0,0,0,.35-.12A7.09,7.09,0,0,0,27.54,9C28.07,8.38,28.7,7.56,29.44,6.53Z"/><path class="cls-1" d="M34.76,4.44h.39A4.94,4.94,0,0,1,36,3.22a1.26,1.26,0,0,1,.89-.36c.33,0,.5.07.5.23a1.84,1.84,0,0,1-.39.59,8.25,8.25,0,0,0-.59.8l.55.07.37,0a13.89,13.89,0,0,1-1.3,2l-.42,0-.35,0-.43,0c-.33.53-.6,1-.82,1.41A8.84,8.84,0,0,0,33.52,9a3,3,0,0,0-.18,1c0,.42.17.63.5.63a1.85,1.85,0,0,0,.9-.37c.37-.25.87-.62,1.5-1.13v.61c-1.64,1.77-2.84,2.66-3.63,2.66a.78.78,0,0,1-.65-.32,1.25,1.25,0,0,1-.25-.82,2.64,2.64,0,0,1,.14-.8c.09-.3.26-.77.5-1.39l-.24.21-.21.19-.2.18-.22.2V9.22a14.27,14.27,0,0,0,2.31-2.8l-.26,0h-.28a3.21,3.21,0,0,0-.8.07l-.2.06-.13,0s0,0,0,0a2,2,0,0,1,.37-.9A3.15,3.15,0,0,1,33,4.86a1.36,1.36,0,0,1,.65-.34A6,6,0,0,1,34.76,4.44Z"/><path class="cls-1" d="M43,9.15v.57c-.53.54-1,1-1.37,1.32a7.52,7.52,0,0,1-1,.78,1.5,1.5,0,0,1-.73.26c-.47,0-.71-.28-.71-.84a3.64,3.64,0,0,1,.44-1.55A18.91,18.91,0,0,1,40.9,7.6a5.84,5.84,0,0,0-.77.53,4.67,4.67,0,0,0-.64.61L39,9.29c-.39.44-.77.9-1.13,1.36s-.61.76-.74.9a.49.49,0,0,1-.36.21c-.47,0-.71-.58-.71-1.74a5.48,5.48,0,0,1,.17-1.26,6.79,6.79,0,0,1,.93-1.83c1.06-1.58,2-2.88,2.72-3.88A26.35,26.35,0,0,1,41.76.76c.5-.52.83-.77,1-.76a1.35,1.35,0,0,1,.51.13c.13.06.2.14.2.22a1.82,1.82,0,0,1-.31.75c-.21.35-.57.89-1.08,1.63L40.91,4.38c-.23.32-.57.77-1,1.35S39,6.84,38.63,7.29s-.81,1-1.3,1.49V9.86c.81-.9,1.52-1.63,2.11-2.21A12.91,12.91,0,0,1,41,6.35a2,2,0,0,1,.9-.44.67.67,0,0,1,.51.32,1,1,0,0,1,.24.53.45.45,0,0,1-.09.23c-.44.52-.79,1-1,1.29a6.42,6.42,0,0,0-.6.92,1.57,1.57,0,0,0-.21.69c0,.29.14.43.41.43A5.11,5.11,0,0,0,43,9.15Z"/><path class="cls-1" d="M44.07,7.52a11.38,11.38,0,0,1,2.67-1.86,5.34,5.34,0,0,1,2-.6.5.5,0,0,1,.35.15,1.18,1.18,0,0,1,.26.37.76.76,0,0,1,.1.31.27.27,0,0,1-.13.24,3.06,3.06,0,0,1-.44.19c0,.09.09.22.16.37a2.87,2.87,0,0,1,.15.37.61.61,0,0,1,.06.25,2,2,0,0,1-.44.81c-.3.39-.5.69-.62.87a1.27,1.27,0,0,0-.18.69c0,.45.21.67.62.67a3.91,3.91,0,0,0,2-1.18v.55c-1.53,1.7-2.63,2.55-3.29,2.55a.56.56,0,0,1-.5-.23,1.29,1.29,0,0,1-.15-.69,6.36,6.36,0,0,1,.52-2.08c-.89,1-1.54,1.68-2,2.1a1.81,1.81,0,0,1-1.06.62c-.14,0-.3-.12-.5-.35a3.13,3.13,0,0,1-.53-.89,2.85,2.85,0,0,1-.24-1.14A2.41,2.41,0,0,1,43,8.9a1.77,1.77,0,0,1,.31-.59A8.37,8.37,0,0,1,44.07,7.52Zm4.34-1a20,20,0,0,0-3.36,1.83,2,2,0,0,0-1,1.55,1,1,0,0,0,.1.48.31.31,0,0,0,.27.18,1,1,0,0,0,.36-.12A7.48,7.48,0,0,0,46.52,9C47,8.38,47.68,7.56,48.41,6.53Z"/><path class="cls-1" d="M56.66,7.51c-1.06,1.18-1.59,2-1.59,2.47,0,.26.1.39.31.39a1.38,1.38,0,0,0,.69-.27q.42-.28,1.32-1v.63c-.86.84-1.52,1.46-2,1.83a2,2,0,0,1-1.13.56c-.49,0-.74-.32-.74-1a1.88,1.88,0,0,1,.09-.57,4.06,4.06,0,0,1,.25-.58c.11-.21.27-.5.49-.88s.47-.8.75-1.28a5.91,5.91,0,0,0-1.3,1,11.53,11.53,0,0,0-.86.93c-.24.3-.49.62-.76,1a6.67,6.67,0,0,1-.59.73.56.56,0,0,1-.37.19c-.2,0-.38-.21-.54-.61a3.88,3.88,0,0,1-.24-1.42,2.08,2.08,0,0,1,.11-.78A5.74,5.74,0,0,1,51,8.1,9.26,9.26,0,0,1,52.1,6.69,1.27,1.27,0,0,1,53,6.24a1.06,1.06,0,0,1,.47.1.34.34,0,0,1,.17.31.34.34,0,0,1,0,.19,1.4,1.4,0,0,1-.12.18l-.29.32C52.2,8.4,51.72,9.09,51.72,9.4s.05.26.17.26.21-.11.42-.34l.81-.92a16.11,16.11,0,0,1,1.17-1.19A12.2,12.2,0,0,1,55.83,6a1.46,1.46,0,0,1,.8-.34c.09,0,.19.13.28.4a2.27,2.27,0,0,1,.14.81C57.05,7,56.92,7.23,56.66,7.51Z"/><path class="cls-1" d="M12.29,11.13a21.66,21.66,0,0,0-6.21,1.94,9.83,9.83,0,0,0-4.15,3.4,2.59,2.59,0,0,0-.52,2.06c.09.33.92.42,1.56,0a12.08,12.08,0,0,0,3.56-3.91A41,41,0,0,0,9.31,9.76c.42-.84.82-1.69,1.18-2.55.18-.43.35-.87.5-1.3s.19-.78-.05-1c-1.16-.9-7.31,3.17-8.48,3.62-.56.22-1.32-1.12-1-1.44.68-.62,4.65-1.92,7.74-3.34.47-.1,2.91-1.13,3.32.94a8.73,8.73,0,0,1-.8,3c-.34.91-.72,1.81-1.12,2.69a44.45,44.45,0,0,1-2.81,5.1,13.36,13.36,0,0,1-4.19,4.36,3.18,3.18,0,0,1-1.76.37A2,2,0,0,1,.16,19.08a3.54,3.54,0,0,1,.77-3.29c2.44-3.09,5.35-3.54,11.33-5.63A2,2,0,0,1,12.29,11.13Z"/><path class="cls-1" d="M60.31,2a2,2,0,1,1-2,2,2,2,0,0,1,2-2Zm0,.4a1.53,1.53,0,0,0-1.51,1.57,1.53,1.53,0,0,0,1.53,1.57,1.5,1.5,0,0,0,1.5-1.57A1.52,1.52,0,0,0,60.3,2.37ZM60,5h-.46V3a4.47,4.47,0,0,1,.76-.07,1.06,1.06,0,0,1,.68.16.53.53,0,0,1,.2.42.52.52,0,0,1-.41.47V4a.57.57,0,0,1,.36.48,1.28,1.28,0,0,0,.14.48h-.49a1.52,1.52,0,0,1-.16-.47c0-.21-.15-.31-.4-.31H60Zm0-1.1h.22c.25,0,.45-.09.45-.29s-.13-.3-.42-.3l-.25,0Z"/></svg>