<svg id="Calque_1" data-name="Calque 1" xmlns="http://www.w3.org/2000/svg" viewBox="0 0 14.4 23.98"><defs><style>.cls-1{fill:#616262;}</style></defs><path class="cls-1" d="M8,11.37a3.64,3.64,0,1,1,3.63-3.63A3.64,3.64,0,0,1,8,11.37ZM8,5.13a2.61,2.61,0,1,0,2.6,2.61A2.61,2.61,0,0,0,8,5.13Z" transform="translate(-0.8 0)"/><path class="cls-1" d="M8,24,1.53,10.48a7.35,7.35,0,0,1,.32-7A7.05,7.05,0,0,1,7.65,0h.7a7,7,0,0,1,5.79,3.48,7.35,7.35,0,0,1,.33,7ZM8,1H7.69A6,6,0,0,0,2.74,4a6.34,6.34,0,0,0-.28,6L8,21.59,13.54,10a6.34,6.34,0,0,0-.28-6A6,6,0,0,0,8.31,1Z" transform="translate(-0.8 0)"/></svg>